<svg width="213" height="258" viewBox="0 0 213 258" fill="none" xmlns="http://www.w3.org/2000/svg">
<path fill-rule="evenodd" clip-rule="evenodd" d="M48.5992 163.784L74.9751 116.914L33.9174 0C10.1829 6.39783 -13.0131 54.7014 8.56722 95.3148C18.9406 114.815 48.5992 163.784 48.5992 163.784ZM30.7627 151.437L19.2994 143.874L12.2213 125.078H7.10512L9.65681 149.812L40.8797 168.34L30.7627 151.437ZM181.3 151.437L192.763 143.874L199.828 125.078H204.957L202.393 149.812L171.183 168.34L181.3 151.437ZM69.5505 195.083L106.018 257.193L142.1 195.172L106.018 200.853L69.5505 195.083ZM106.032 84.6176L127.868 118.437L106.032 151.82L84.1948 118.437L106.032 84.6176ZM157.27 170.95L132.766 127.688L106.031 167.777L79.2963 127.688L54.7924 170.95L36.6998 182.607L34.1353 221.915H39.2643L46.3295 188.544L56.0105 184.564L106.031 191.436L156.052 184.564L165.733 188.544L172.798 221.915H177.927L175.363 182.607L157.27 170.95ZM178.145 0C201.879 6.39783 225.075 54.7014 203.482 95.3148C193.122 114.815 163.45 163.784 163.45 163.784L137.113 116.914L178.145 0Z" fill="#FFFFFF" fill-opacity="0.15"/>
</svg>
