<svg width="756" height="903" viewBox="0 0 756 903" fill="none" xmlns="http://www.w3.org/2000/svg">
<path fill-rule="evenodd" clip-rule="evenodd" d="M1008 365.086L293.096 1079.99L288.809 1075.7L1003.71 360.799L1008 365.086ZM997.738 354.793L282.833 1069.7L278.546 1065.41L993.452 350.506L997.738 354.793ZM272.543 1059.44L987.448 344.536L983.161 340.25L268.256 1055.15L272.543 1059.44ZM977.166 334.261L262.261 1049.17L257.974 1044.88L972.879 329.975L977.166 334.261ZM251.972 1038.87L966.877 323.968L962.59 319.681L247.685 1034.59L251.972 1038.87ZM956.596 313.693L241.69 1028.6L237.404 1024.31L952.309 309.407L956.596 313.693ZM231.426 1018.31L946.331 303.4L942.044 299.113L227.139 1014.02L231.426 1018.31ZM936.023 293.125L221.118 1008.03L216.831 1003.74L931.737 288.838L936.023 293.125ZM210.856 997.737L925.761 282.832L921.474 278.545L206.569 993.45L210.856 997.737ZM915.479 272.557L200.573 987.462L196.287 983.175L911.192 268.27L915.479 272.557ZM190.284 977.205L905.189 262.3L900.903 258.013L185.997 972.919L190.284 977.205ZM894.908 251.989L180.003 966.894L175.716 962.607L890.621 247.702L894.908 251.989ZM169.727 956.606L884.632 241.701L880.345 237.414L165.44 952.319L169.727 956.606ZM874.336 231.439L159.431 946.344L155.144 942.057L870.049 227.152L874.336 231.439ZM149.168 936.051L864.073 221.146L859.786 216.859L144.881 931.764L149.168 936.051ZM853.766 210.852L138.86 925.757L134.574 921.471L849.479 206.565L853.766 210.852ZM128.597 915.501L843.502 200.596L839.215 196.309L124.31 911.214L128.597 915.501ZM833.221 190.321L118.315 905.226L114.029 900.939L828.934 186.034L833.221 190.321ZM108.025 894.933L822.931 180.027L818.644 175.741L103.739 890.646L108.025 894.933ZM812.648 169.734L97.7432 884.639L93.4565 880.353L808.362 165.447L812.648 169.734ZM87.4805 874.364L802.386 159.459L798.099 155.172L83.1938 870.078L87.4805 874.364ZM792.096 149.184L77.1905 864.09L72.9037 859.803L787.809 144.898L792.096 149.184ZM66.9083 853.778L781.813 138.873L777.527 134.586L62.6215 849.491L66.9083 853.778ZM771.525 128.616L56.6202 843.521L52.3334 839.235L767.239 124.329L771.525 128.616ZM46.338 833.265L761.243 118.36L756.956 114.073L42.0512 828.978L46.338 833.265ZM750.98 108.048L36.0753 822.953L31.7885 818.666L746.694 103.761L750.98 108.048ZM25.7667 812.678L740.672 97.7731L736.385 93.4863L21.4799 808.392L25.7667 812.678ZM730.408 87.4798L15.5031 802.385L11.2164 798.098L726.121 83.1931L730.408 87.4798ZM5.22076 792.11L720.126 77.2049L715.839 72.9181L0.934021 787.823L5.22076 792.11ZM709.838 66.9299L-5.06732 781.835L-9.35406 777.548L705.551 62.6431L709.838 66.9299ZM-15.3495 771.542L699.556 56.6367L695.269 52.3499L-19.6362 767.255L-15.3495 771.542ZM689.279 46.3671L-25.6259 761.272L-29.9126 756.986L684.993 42.0804L689.279 46.3671ZM-35.9208 750.974L678.984 36.0685L674.698 31.7818L-40.2075 746.687L-35.9208 750.974ZM668.721 25.7936L-46.1844 740.699L-50.4712 736.412L664.434 21.5069L668.721 25.7936ZM-56.4921 730.424L658.413 15.5186L654.126 11.2319L-60.7788 726.137L-56.4921 730.424ZM648.15 5.2254L-66.7548 720.131L-71.0415 715.844L643.864 0.93866L648.15 5.2254ZM-77.037 709.837L637.868 -5.06793L633.581 -9.35468L-81.3237 705.551L-77.037 709.837ZM627.578 -15.3246L-87.327 699.581L-91.6138 695.294L623.291 -19.6114L627.578 -15.3246Z" fill="url(#paint0_linear_9_11526)" style="mix-blend-mode:screen"/>
<defs>
<linearGradient id="paint0_linear_9_11526" x1="304.5" y1="811.5" x2="352.5" y2="389.5" gradientUnits="userSpaceOnUse">
<stop stop-color="white" stop-opacity="0.05"/>
<stop offset="0.83061" stop-color="white" stop-opacity="0"/>
</linearGradient>
</defs>
</svg>
