<?xml version="1.0" encoding="UTF-8"?>
<svg width="700pt" height="700pt" version="1.1" viewBox="0 0 700 700" xmlns="http://www.w3.org/2000/svg" xmlns:xlink="http://www.w3.org/1999/xlink">
 <defs>
  <symbol id="u" overflow="visible">
   <path d="m14.656-0.875c-0.76172 0.39844-1.5547 0.69531-2.375 0.89062-0.8125 0.19531-1.6641 0.29688-2.5469 0.29688-2.6562 0-4.7617-0.73828-6.3125-2.2188-1.5547-1.4883-2.3281-3.5039-2.3281-6.0469 0-2.5508 0.77344-4.5664 2.3281-6.0469 1.5508-1.4883 3.6562-2.2344 6.3125-2.2344 0.88281 0 1.7344 0.10156 2.5469 0.29688 0.82031 0.19922 1.6133 0.49609 2.375 0.89062v3.2969c-0.76172-0.51953-1.5117-0.89844-2.25-1.1406-0.74219-0.23828-1.5234-0.35938-2.3438-0.35938-1.4688 0-2.625 0.46875-3.4688 1.4062-0.83594 0.9375-1.25 2.2344-1.25 3.8906 0 1.6484 0.41406 2.9375 1.25 3.875 0.84375 0.9375 2 1.4062 3.4688 1.4062 0.82031 0 1.6016-0.11719 2.3438-0.35938 0.73828-0.23828 1.4883-0.61719 2.25-1.1406z"/>
  </symbol>
  <symbol id="b" overflow="visible">
   <path d="m10.719-8.7031c-0.33594-0.15625-0.66797-0.26953-1-0.34375-0.32422-0.082031-0.65625-0.125-1-0.125-0.98047 0-1.7344 0.32031-2.2656 0.95312-0.53125 0.625-0.79688 1.5273-0.79688 2.7031v5.5156h-3.8125v-11.969h3.8125v1.9688c0.48828-0.78125 1.0508-1.3477 1.6875-1.7031 0.64453-0.36328 1.4102-0.54688 2.2969-0.54688 0.13281 0 0.27344 0.007812 0.42188 0.015625 0.14453 0.011719 0.36328 0.03125 0.65625 0.0625z"/>
  </symbol>
  <symbol id="a" overflow="visible">
   <path d="m13.781-6.0156v1.0938h-8.9375c0.09375 0.89844 0.41406 1.5703 0.96875 2.0156 0.55078 0.44922 1.3281 0.67188 2.3281 0.67188 0.80078 0 1.625-0.11719 2.4688-0.35938 0.84375-0.23828 1.7109-0.59766 2.6094-1.0781v2.9531c-0.90625 0.33594-1.8125 0.58984-2.7188 0.76562s-1.8125 0.26562-2.7188 0.26562c-2.1562 0-3.8398-0.54688-5.0469-1.6406-1.1992-1.1016-1.7969-2.6484-1.7969-4.6406 0-1.9453 0.58594-3.4766 1.7656-4.5938 1.1758-1.125 2.8008-1.6875 4.875-1.6875 1.875 0 3.375 0.57031 4.5 1.7031 1.1328 1.125 1.7031 2.6367 1.7031 4.5312zm-3.9375-1.2656c0-0.72656-0.21484-1.3125-0.64062-1.75-0.41797-0.44531-0.96875-0.67188-1.6562-0.67188-0.74219 0-1.3438 0.21094-1.8125 0.625-0.46094 0.41797-0.74609 1.0156-0.85938 1.7969z"/>
  </symbol>
  <symbol id="k" overflow="visible">
   <path d="m7.2031-5.3906c-0.80469 0-1.4062 0.13672-1.8125 0.40625-0.39844 0.27344-0.59375 0.67188-0.59375 1.2031 0 0.48047 0.16016 0.85938 0.48438 1.1406 0.32031 0.27344 0.77344 0.40625 1.3594 0.40625 0.71875 0 1.3203-0.25391 1.8125-0.76562 0.48828-0.51953 0.73438-1.1719 0.73438-1.9531v-0.4375zm5.8438-1.4375v6.8281h-3.8594v-1.7656c-0.51172 0.71875-1.0898 1.2461-1.7344 1.5781-0.63672 0.33203-1.418 0.5-2.3438 0.5-1.2422 0-2.2461-0.35938-3.0156-1.0781-0.77344-0.72656-1.1562-1.6719-1.1562-2.8281 0-1.3945 0.47656-2.4219 1.4375-3.0781 0.96875-0.65625 2.4883-0.98438 4.5625-0.98438h2.25v-0.29688c0-0.60156-0.24219-1.0469-0.71875-1.3281-0.48047-0.28125-1.2266-0.42188-2.2344-0.42188-0.8125 0-1.5742 0.085937-2.2812 0.25-0.71094 0.15625-1.3672 0.40234-1.9688 0.73438v-2.9219c0.82031-0.19531 1.6445-0.34766 2.4688-0.45312 0.82031-0.10156 1.6484-0.15625 2.4844-0.15625 2.1562 0 3.7109 0.42969 4.6719 1.2812 0.95703 0.84375 1.4375 2.2266 1.4375 4.1406z"/>
  </symbol>
  <symbol id="c" overflow="visible">
   <path d="m6.0156-15.359v3.3906h3.9375v2.7344h-3.9375v5.0781c0 0.55469 0.10938 0.92969 0.32812 1.125 0.21875 0.19922 0.65625 0.29688 1.3125 0.29688h1.9688v2.7344h-3.2812c-1.5117 0-2.5859-0.3125-3.2188-0.9375-0.625-0.63281-0.9375-1.707-0.9375-3.2188v-5.0781h-1.9062v-2.7344h1.9062v-3.3906z"/>
  </symbol>
  <symbol id="j" overflow="visible">
   <path d="m9.9688-10.219v-6.4062h3.8594v16.625h-3.8594v-1.7344c-0.52344 0.71094-1.1016 1.2305-1.7344 1.5625-0.63672 0.32031-1.3711 0.48438-2.2031 0.48438-1.4688 0-2.6797-0.58203-3.625-1.75-0.94922-1.1758-1.4219-2.6875-1.4219-4.5312s0.47266-3.3477 1.4219-4.5156c0.94531-1.1758 2.1562-1.7656 3.625-1.7656 0.83203 0 1.5664 0.16797 2.2031 0.5 0.63281 0.32422 1.2109 0.83594 1.7344 1.5312zm-2.5156 7.75c0.82031 0 1.4453-0.29688 1.875-0.89062 0.42578-0.60156 0.64062-1.4727 0.64062-2.6094 0-1.1445-0.21484-2.0156-0.64062-2.6094-0.42969-0.59375-1.0547-0.89062-1.875-0.89062-0.8125 0-1.4336 0.29688-1.8594 0.89062-0.42969 0.59375-0.64062 1.4648-0.64062 2.6094 0 1.1367 0.21094 2.0078 0.64062 2.6094 0.42578 0.59375 1.0469 0.89062 1.8594 0.89062z"/>
  </symbol>
  <symbol id="i" overflow="visible">
   <path d="m8.2031-2.4688c0.82031 0 1.4453-0.29688 1.875-0.89062 0.42578-0.60156 0.64062-1.4727 0.64062-2.6094 0-1.1445-0.21484-2.0156-0.64062-2.6094-0.42969-0.59375-1.0547-0.89062-1.875-0.89062-0.82422 0-1.4531 0.30469-1.8906 0.90625-0.4375 0.59375-0.65625 1.4609-0.65625 2.5938 0 1.1367 0.21875 2.0078 0.65625 2.6094 0.4375 0.59375 1.0664 0.89062 1.8906 0.89062zm-2.5469-7.75c0.53125-0.69531 1.1133-1.207 1.75-1.5312 0.64453-0.33203 1.3828-0.5 2.2188-0.5 1.4688 0 2.6758 0.58984 3.625 1.7656 0.94531 1.168 1.4219 2.6719 1.4219 4.5156s-0.47656 3.3555-1.4219 4.5312c-0.94922 1.168-2.1562 1.75-3.625 1.75-0.83594 0-1.5742-0.16797-2.2188-0.5-0.63672-0.33203-1.2188-0.84766-1.75-1.5469v1.7344h-3.8125v-16.625h3.8125z"/>
  </symbol>
  <symbol id="h" overflow="visible">
   <path d="m0.26562-11.969h3.8281l3.2188 8.125 2.7344-8.125h3.8125l-5.0312 13.094c-0.5 1.332-1.0898 2.2656-1.7656 2.7969-0.66797 0.53125-1.5547 0.79688-2.6562 0.79688h-2.2188v-2.5h1.2031c0.64453 0 1.1133-0.10547 1.4062-0.3125 0.30078-0.21094 0.53125-0.57812 0.6875-1.1094l0.10938-0.34375z"/>
  </symbol>
  <symbol id="g" overflow="visible">
   <path d="m0.10938-15.953h4.125l4.2344 11.781 4.2188-11.781h4.1406l-5.9062 15.953h-4.9062z"/>
  </symbol>
  <symbol id="t" overflow="visible">
   <path d="m1.8438-11.969h3.8125v11.969h-3.8125zm0-4.6562h3.8125v3.125h-3.8125z"/>
  </symbol>
  <symbol id="f" overflow="visible">
   <path d="m11.5-11.594v3.125c-0.52344-0.35156-1.043-0.61328-1.5625-0.78125-0.52344-0.17578-1.0625-0.26562-1.625-0.26562-1.0742 0-1.9062 0.3125-2.5 0.9375s-0.89062 1.4961-0.89062 2.6094c0 1.1172 0.29688 1.9844 0.89062 2.6094s1.4258 0.9375 2.5 0.9375c0.59375 0 1.1562-0.085937 1.6875-0.26562 0.53906-0.17578 1.0391-0.44141 1.5-0.79688v3.125c-0.59375 0.23047-1.1992 0.39453-1.8125 0.5-0.61719 0.11328-1.2344 0.17188-1.8594 0.17188-2.1562 0-3.8438-0.55078-5.0625-1.6562-1.2188-1.1133-1.8281-2.6562-1.8281-4.625s0.60938-3.5039 1.8281-4.6094c1.2188-1.1133 2.9062-1.6719 5.0625-1.6719 0.625 0 1.2383 0.058594 1.8438 0.17188 0.61328 0.10547 1.2227 0.26562 1.8281 0.48438z"/>
  </symbol>
  <symbol id="d" overflow="visible">
   <path d="m7.5312-9.5156c-0.84375 0-1.4922 0.30859-1.9375 0.92188-0.44922 0.60547-0.67188 1.4805-0.67188 2.625 0 1.1484 0.22266 2.0273 0.67188 2.6406 0.44531 0.60547 1.0938 0.90625 1.9375 0.90625 0.83203 0 1.4688-0.30078 1.9062-0.90625 0.44531-0.61328 0.67188-1.4922 0.67188-2.6406 0-1.1445-0.22656-2.0195-0.67188-2.625-0.4375-0.61328-1.0742-0.92188-1.9062-0.92188zm0-2.7344c2.0508 0 3.6562 0.55859 4.8125 1.6719 1.1641 1.1055 1.75 2.6406 1.75 4.6094s-0.58594 3.5117-1.75 4.625c-1.1562 1.1055-2.7617 1.6562-4.8125 1.6562-2.0625 0-3.6797-0.55078-4.8438-1.6562-1.168-1.1133-1.75-2.6562-1.75-4.625s0.58203-3.5039 1.75-4.6094c1.1641-1.1133 2.7812-1.6719 4.8438-1.6719z"/>
  </symbol>
  <symbol id="e" overflow="visible">
   <path d="m1.7031-4.6562v-7.3125h3.8438v1.2031c0 0.64844-0.007813 1.4609-0.015625 2.4375v1.9688c0 0.96094 0.023438 1.6523 0.078125 2.0781 0.050781 0.41797 0.13281 0.72656 0.25 0.92188 0.15625 0.25 0.35938 0.44531 0.60938 0.57812 0.25781 0.13672 0.55078 0.20312 0.875 0.20312 0.80078 0 1.4258-0.30469 1.875-0.92188 0.45703-0.61328 0.6875-1.4688 0.6875-2.5625v-5.9062h3.8281v11.969h-3.8281v-1.7344c-0.57422 0.69922-1.1836 1.2148-1.8281 1.5469-0.64844 0.33203-1.3555 0.5-2.125 0.5-1.3867 0-2.4453-0.42188-3.1719-1.2656-0.71875-0.85156-1.0781-2.0859-1.0781-3.7031z"/>
  </symbol>
  <symbol id="s" overflow="visible">
   <path d="m1.8438-16.625h3.8125v16.625h-3.8125z"/>
  </symbol>
  <symbol id="r" overflow="visible">
   <path d="m9.7031-16.625v2.5156h-2.1094c-0.54297 0-0.92188 0.10156-1.1406 0.29688-0.21094 0.19922-0.3125 0.53906-0.3125 1.0156v0.82812h3.2656v2.7344h-3.2656v9.2344h-3.8281v-9.2344h-1.8906v-2.7344h1.8906v-0.82812c0-1.3008 0.36328-2.2656 1.0938-2.8906 0.72656-0.625 1.8516-0.9375 3.375-0.9375z"/>
  </symbol>
  <symbol id="q" overflow="visible">
   <path d="m12.922-9.9688c0.48828-0.75 1.0625-1.3164 1.7188-1.7031 0.66406-0.38281 1.3984-0.57812 2.2031-0.57812 1.375 0 2.4219 0.42969 3.1406 1.2812 0.71875 0.84375 1.0781 2.0742 1.0781 3.6875v7.2812h-3.8438v-6.2344c0.007812-0.09375 0.015625-0.1875 0.015625-0.28125v-0.4375c0-0.84375-0.125-1.457-0.375-1.8438-0.25-0.38281-0.65234-0.57812-1.2031-0.57812-0.73047 0-1.293 0.30469-1.6875 0.90625-0.38672 0.59375-0.58984 1.4609-0.60938 2.5938v5.875h-3.8438v-6.2344c0-1.3203-0.11719-2.1758-0.34375-2.5625-0.23047-0.38281-0.63672-0.57812-1.2188-0.57812-0.73047 0-1.2969 0.30469-1.7031 0.90625-0.39844 0.60547-0.59375 1.4648-0.59375 2.5781v5.8906h-3.8438v-11.969h3.8438v1.75c0.46875-0.66406 1.0039-1.1719 1.6094-1.5156 0.61328-0.34375 1.2891-0.51562 2.0312-0.51562 0.82031 0 1.5508 0.19922 2.1875 0.59375 0.63281 0.39844 1.1133 0.96094 1.4375 1.6875z"/>
  </symbol>
  <symbol id="p" overflow="visible">
   <path d="m13.859-7.2812v7.2812h-3.8438v-5.5469c0-1.0508-0.027344-1.7695-0.078125-2.1562-0.042969-0.39453-0.12109-0.6875-0.23438-0.875-0.14844-0.25-0.35156-0.44141-0.60938-0.57812-0.25-0.14453-0.54297-0.21875-0.875-0.21875-0.79297 0-1.418 0.3125-1.875 0.9375-0.46094 0.61719-0.6875 1.4648-0.6875 2.5469v5.8906h-3.8125v-16.625h3.8125v6.4062c0.58203-0.69531 1.1953-1.207 1.8438-1.5312 0.64453-0.33203 1.3594-0.5 2.1406-0.5 1.3828 0 2.4297 0.42969 3.1406 1.2812 0.71875 0.84375 1.0781 2.0742 1.0781 3.6875z"/>
  </symbol>
  <symbol id="o" overflow="visible">
   <path d="m2.0156-15.953h4.5781l5.8125 10.938v-10.938h3.8906v15.953h-4.5938l-5.7969-10.938v10.938h-3.8906z"/>
  </symbol>
  <symbol id="n" overflow="visible">
   <path d="m13.859-7.2812v7.2812h-3.8438v-5.5781c0-1.0312-0.027344-1.7383-0.078125-2.125-0.042969-0.39453-0.12109-0.6875-0.23438-0.875-0.14844-0.25-0.35156-0.44141-0.60938-0.57812-0.25-0.14453-0.54297-0.21875-0.875-0.21875-0.79297 0-1.418 0.3125-1.875 0.9375-0.46094 0.61719-0.6875 1.4648-0.6875 2.5469v5.8906h-3.8125v-11.969h3.8125v1.75c0.58203-0.69531 1.1953-1.207 1.8438-1.5312 0.64453-0.33203 1.3594-0.5 2.1406-0.5 1.3828 0 2.4297 0.42969 3.1406 1.2812 0.71875 0.84375 1.0781 2.0742 1.0781 3.6875z"/>
  </symbol>
  <symbol id="m" overflow="visible">
   <path d="m2.0156-15.953h6.8125c2.0312 0 3.5859 0.45312 4.6719 1.3594 1.0938 0.89844 1.6406 2.1797 1.6406 3.8438 0 1.6797-0.54688 2.9688-1.6406 3.875-1.0859 0.89844-2.6406 1.3438-4.6719 1.3438h-2.7031v5.5312h-4.1094zm4.1094 2.9844v4.4531h2.2656c0.80078 0 1.4141-0.19141 1.8438-0.57812 0.4375-0.38281 0.65625-0.9375 0.65625-1.6562 0-0.70703-0.21875-1.2539-0.65625-1.6406-0.42969-0.38281-1.043-0.57812-1.8438-0.57812z"/>
  </symbol>
  <symbol id="l" overflow="visible">
   <path d="m1.8438-11.969h3.8125v11.75c0 1.6016-0.38672 2.8281-1.1562 3.6719-0.76172 0.84375-1.8711 1.2656-3.3281 1.2656h-1.8906v-2.5h0.65625c0.72656 0 1.2266-0.16797 1.5-0.5 0.26953-0.32422 0.40625-0.96875 0.40625-1.9375zm0-4.6562h3.8125v3.125h-3.8125z"/>
  </symbol>
 </defs>
 <g>
  <path d="m257.34 206.16c-6.0352 7.9688-9.0586 17.812-8.5273 27.793 0.52734 9.9805 4.5703 19.453 11.41 26.742 6.8398 7.2852 16.039 11.918 25.969 13.07 9.9297 1.1562 19.945-1.2383 28.277-6.7617 8.332-5.5195 14.441-13.812 17.246-23.402 2.8047-9.5938 2.125-19.871-1.918-29.012 6.7695 0.26172 13.531 0.4375 20.199 0.4375s13.43-0.17578 20.199-0.4375c-4 9.1211-4.6523 19.363-1.8359 28.918 2.8164 9.5547 8.918 17.809 17.227 23.301s18.293 7.875 28.184 6.7266c9.8945-1.1523 19.066-5.7617 25.891-13.016 6.8281-7.2539 10.871-16.684 11.422-26.629 0.54687-9.9453-2.4375-19.766-8.4219-27.727 50.043-10.105 85.555-27.605 89.281-44.398h-0.003906c0.96875-4.293-0.097656-8.793-2.8906-12.195-6.7383-8.6445-24.355-14.148-48.695-15.312-9.7227-46.438-38.359-103.39-73.918-120.36-13.973-7.1719-30.609-6.8594-44.301 0.83203-7.6094 4.0078-16.703 4.0078-24.312 0-13.684-7.6758-30.301-7.9883-44.262-0.83203-35.543 16.965-64.172 73.938-73.898 120.38-24.289 1.1289-41.953 6.6367-48.699 15.312-2.7891 3.4062-3.8555 7.9062-2.8906 12.203 3.7109 16.77 39.227 34.27 89.27 44.371zm33.812 58.875c-8.8672 0.019532-17.379-3.4766-23.668-9.7227-6.2891-6.2461-9.8477-14.734-9.8867-23.598-0.039062-8.8672 3.4414-17.387 9.6758-23.688 17.348 3.0273 34.855 5.0586 52.434 6.0859 4.1797 6.7891 5.793 14.852 4.5508 22.73-1.2461 7.875-5.2695 15.047-11.34 20.219-6.0703 5.168-13.793 7.9961-21.766 7.9727zm117.69 0c-7.9727 0.023438-15.695-2.8047-21.766-7.9727-6.0703-5.1719-10.094-12.344-11.34-20.219-1.2422-7.8789 0.37109-15.941 4.5508-22.73 17.578-1.0273 35.09-3.0586 52.438-6.082 6.2344 6.3047 9.7109 14.824 9.6719 23.688-0.042969 8.8633-3.5977 17.352-9.8867 23.598-6.293 6.2461-14.805 9.7383-23.668 9.7188zm-181.34-125.69c8.75-45.574 37.227-101.99 69.812-117.55 11.477-5.9023 25.148-5.6562 36.402 0.65625 10.172 5.4492 22.395 5.4492 32.566 0 11.258-6.3086 24.926-6.5547 36.406-0.65625 32.586 15.562 61.062 71.98 69.812 117.55 0.98828 5.0039 1.7188 10.051 2.1875 15.129-3.0625 7.2461-52.637 23.363-124.69 23.363s-121.62-16.117-124.69-23.363c0.46875-5.0781 1.1992-10.125 2.1875-15.129zm-49.656 15.598c3.8672-4.957 16.406-10.465 40.145-11.812-0.62891 3.875-1.1602 7.6914-1.4727 11.445 0 18.039 71.75 32.023 133.48 32.023 61.73 0 133.48-14 133.46-32.402-0.30078-3.5-0.82813-7.2305-1.4531-11.074 23.723 1.3555 36.273 6.875 40.141 11.812v0.003906c1.1797 1.3477 1.6445 3.1797 1.2461 4.9258-2.5586 11.547-34.961 29.195-89.969 39.172v0.003906c-18.504 3.3203-37.199 5.4883-55.973 6.4922-18.289 0.97656-36.617 0.97656-54.906 0-18.785-1.0039-37.484-3.1758-56-6.5039-55.004-9.9766-87.402-27.625-89.965-39.164-0.39062-1.75 0.082031-3.5781 1.2656-4.9219z"/>
  <path d="m561.14 494.47c-6.8633-15.805-15.258-30.895-25.059-45.062-6.5312-10.219-15.48-18.668-26.055-24.602l-43.379-27.156c-8.8477-7.9961-20.883-15.141-54.297-27.262-4.5781-13.242-12.738-14.438-17.324-13.914v0.003906c-4.2031 0.69141-8.3047 1.8945-12.211 3.5859-21.008 8.7031-44.617 8.7031-65.625 0-3.9297-1.7031-8.0547-2.9141-12.281-3.6055-4.5938-0.55078-12.77 0.69531-17.27 13.918-33.371 12.102-45.43 19.25-54.336 27.25l-43.367 27.188c-10.582 5.9414-19.535 14.395-26.074 24.617-9.7812 14.18-18.168 29.27-25.047 45.062-1.8125 3.8711-2.1641 8.2695-0.98438 12.379 1.1758 4.1094 3.8008 7.6523 7.3906 9.9727 16.695 9.8203 47.312 18.715 86.188 25.043 10.938 1.8359 22.867 3.457 35.41 4.8125 27.625 3.0234 55.395 4.5391 83.184 4.5508 27.77-0.015625 55.52-1.543 83.125-4.5781 12.574-1.3477 24.5-2.9648 35.41-4.8125 38.938-6.332 69.562-15.227 86.188-25.043v0.003906c3.5977-2.3164 6.2344-5.8594 7.4141-9.9727 1.1797-4.1094 0.82422-8.5117-1-12.379zm-102.95-63.238c-0.17188 0.066406-0.33984 0.14453-0.5 0.23047-0.32812 0.10937-0.63672 0.25781-0.92969 0.4375-0.20703 0.16016-0.39844 0.33984-0.57031 0.53516-0.47656 0.37891-0.82031 0.89844-0.98047 1.4883-0.10156 0.18359-0.19141 0.37109-0.26562 0.56641v0.13672c-0.039062 0.58203-0.039062 1.168 0 1.75v0.13672c0.097656 0.32031 0.23047 0.62891 0.39453 0.91797 0.066406 0.13281 0.097656 0.28125 0.17578 0.40625 0.28125 0.44141 0.63672 0.82812 1.0547 1.1445 0.10156 0.078125 0.23047 0.11719 0.33984 0.1875 0.34375 0.21875 0.71875 0.39062 1.1094 0.50781 0.066406 0 0.11328 0.066407 0.17578 0.082031 19.824 4.6992 20.094 8.7969 20.312 12.07 1.3945 22.164-8.082 66.559-13.832 81.812-8.5664 1.3945-17.723 2.6523-27.32 3.7578 5.0391-72.891-8.3984-117.66-21.438-156.37 27.355 10.273 37.836 16.684 45.16 23.371 12.527 11.344 13.48 18.129 12.039 20.395l-0.003906 0.003906c-4.3984 3.2891-9.5078 5.4961-14.922 6.4297zm-195.56 106.16c-9.5781-1.1016-18.73-2.3594-27.32-3.7578-5.7539-15.254-15.227-59.652-13.828-81.812 0.21875-3.2891 0.48828-7.3906 20.312-12.09 0.066407 0 0.10938-0.0625 0.17188-0.082031 0.39844-0.11719 0.77734-0.28906 1.1289-0.51562 0.10547-0.066406 0.22266-0.10156 0.32422-0.17578h-0.003906c0.42188-0.31641 0.78125-0.70703 1.0586-1.1523 0.0625-0.12891 0.12109-0.25781 0.16797-0.39453 0.15625-0.28516 0.27734-0.58984 0.36328-0.90625v-0.13672c0.042969-0.58203 0.042969-1.168 0-1.75v-0.13672c-0.070312-0.19531-0.15625-0.38281-0.25781-0.5625-0.10156-0.30078-0.23438-0.58594-0.39453-0.85547-0.35938-0.42188-0.75-0.8125-1.168-1.1719-0.47266-0.21875-0.94922-0.4375-1.4219-0.66016-6.0547-1.4492-13.684-4.4453-14.945-6.4297-1.4102-2.2344-0.4375-9.0469 12.059-20.414 7.3633-6.6953 17.871-13.102 45.188-23.363-13.051 38.691-26.488 83.484-21.453 156.37zm-115.67-39.695c6.625-15.129 14.668-29.598 24.027-43.207 5.7266-9.1094 13.629-16.645 23-21.934 0.13672-0.066406 0.26953-0.14453 0.40234-0.22656l24.168-15.129c-1.6367 4.0039-1.3125 8.543 0.875 12.277 1.8906 2.5 4.3984 4.4688 7.2773 5.7148-8.4883 3.4023-13.449 8.0195-14 16.082-1.3555 21.551 6.668 61.48 12.762 80.723-34.328-6.0391-61.082-14.031-75.824-22.707h0.003907c-3.6445-2.668-4.7891-7.5977-2.6914-11.594zm124.48 40.637c-5.5391-76.492 9.7344-121.62 23.273-161.44l0.64844-1.9258c2.9922-10.434 7.1523-9.9883 8.5312-9.8086 3.5078 0.625 6.9297 1.6641 10.195 3.0938 23.012 9.4531 48.82 9.4531 71.832 0 3.2461-1.4219 6.6445-2.457 10.129-3.0859 1.3945-0.17969 5.5898-0.64844 8.6523 10.012l0.64062 1.8867c13.496 39.812 28.715 84.875 23.188 161.28v-0.003906c-26.086 2.7461-52.297 4.1328-78.527 4.1602-26.242-0.035156-52.465-1.4258-78.562-4.1719zm278.86-29.043c-14.699 8.6758-41.453 16.668-75.824 22.707 6.0938-19.25 14.117-59.172 12.762-80.734-0.53906-8.0547-5.5-12.688-14-16.07 2.8867-1.2461 5.3945-3.2305 7.2734-5.75 2.1914-3.707 2.5312-8.2266 0.91797-12.219l24.133 15.105c0.125 0.085937 0.25781 0.16016 0.39844 0.22266 9.3594 5.2891 17.262 12.824 22.984 21.93 9.3789 13.598 17.43 28.066 24.035 43.207 2.1133 3.9961 0.97266 8.9375-2.6797 11.602z"/>
  <use x="70" y="625.625" xlink:href="#u"/>
  <use x="86.054688" y="625.625" xlink:href="#b"/>
  <use x="96.839844" y="625.625" xlink:href="#a"/>
  <use x="111.679687" y="625.625" xlink:href="#k"/>
  <use x="126.4375" y="625.625" xlink:href="#c"/>
  <use x="136.894531" y="625.625" xlink:href="#a"/>
  <use x="151.730469" y="625.625" xlink:href="#j"/>
  <use x="175.007812" y="625.625" xlink:href="#i"/>
  <use x="190.664062" y="625.625" xlink:href="#h"/>
  <use x="212.539062" y="625.625" xlink:href="#g"/>
  <use x="229.46875" y="625.625" xlink:href="#t"/>
  <use x="236.96875" y="625.625" xlink:href="#f"/>
  <use x="249.933594" y="625.625" xlink:href="#c"/>
  <use x="260.390625" y="625.625" xlink:href="#d"/>
  <use x="275.421875" y="625.625" xlink:href="#b"/>
  <use x="286.207031" y="625.625" xlink:href="#e"/>
  <use x="301.78125" y="625.625" xlink:href="#s"/>
  <use x="309.277344" y="625.625" xlink:href="#a"/>
  <use x="324.117188" y="625.625" xlink:href="#b"/>
  <use x="70" y="647.5" xlink:href="#r"/>
  <use x="79.515625" y="647.5" xlink:href="#b"/>
  <use x="90.304688" y="647.5" xlink:href="#d"/>
  <use x="105.332031" y="647.5" xlink:href="#q"/>
  <use x="135.742188" y="647.5" xlink:href="#c"/>
  <use x="146.199219" y="647.5" xlink:href="#p"/>
  <use x="161.773438" y="647.5" xlink:href="#a"/>
  <use x="184.222656" y="647.5" xlink:href="#o"/>
  <use x="202.53125" y="647.5" xlink:href="#d"/>
  <use x="217.558594" y="647.5" xlink:href="#e"/>
  <use x="233.132812" y="647.5" xlink:href="#n"/>
  <use x="256.320312" y="647.5" xlink:href="#m"/>
  <use x="272.355469" y="647.5" xlink:href="#b"/>
  <use x="283.140625" y="647.5" xlink:href="#d"/>
  <use x="298.171875" y="647.5" xlink:href="#l"/>
  <use x="305.667969" y="647.5" xlink:href="#a"/>
  <use x="320.503906" y="647.5" xlink:href="#f"/>
  <use x="333.472656" y="647.5" xlink:href="#c"/>
 </g>
</svg>
